<mxfile host="www.draw.io" modified="2019-12-10T20:03:43.115Z" agent="Mozilla/5.0 (Macintosh; Intel Mac OS X 10_15_1) AppleWebKit/537.36 (KHTML, like Gecko) Chrome/78.0.3904.108 Safari/537.36" etag="TgEnctLjX0rOkuXbe6RO" version="12.3.9" type="github" pages="1">
  <diagram id="DJK44X9-KY3EHYHdbx-s" name="Page-1">
    <mxGraphModel dx="698" dy="311" grid="1" gridSize="10" guides="1" tooltips="1" connect="1" arrows="1" fold="1" page="1" pageScale="1" pageWidth="827" pageHeight="1169" math="0" shadow="0">
      <root>
        <mxCell id="0"/>
        <mxCell id="1" parent="0"/>
        <mxCell id="seuzQnp5EJA8UqWP3kgC-20" style="edgeStyle=orthogonalEdgeStyle;rounded=0;orthogonalLoop=1;jettySize=auto;html=1;exitX=0.5;exitY=1;exitDx=0;exitDy=0;entryX=0.5;entryY=0;entryDx=0;entryDy=0;" parent="1" source="seuzQnp5EJA8UqWP3kgC-1" target="seuzQnp5EJA8UqWP3kgC-3" edge="1">
          <mxGeometry relative="1" as="geometry"/>
        </mxCell>
        <mxCell id="seuzQnp5EJA8UqWP3kgC-21" style="edgeStyle=orthogonalEdgeStyle;rounded=0;orthogonalLoop=1;jettySize=auto;html=1;exitX=0.5;exitY=1;exitDx=0;exitDy=0;entryX=0.5;entryY=0;entryDx=0;entryDy=0;" parent="1" source="seuzQnp5EJA8UqWP3kgC-1" target="seuzQnp5EJA8UqWP3kgC-11" edge="1">
          <mxGeometry relative="1" as="geometry"/>
        </mxCell>
        <mxCell id="seuzQnp5EJA8UqWP3kgC-44" style="edgeStyle=orthogonalEdgeStyle;rounded=0;orthogonalLoop=1;jettySize=auto;html=1;" parent="1" source="seuzQnp5EJA8UqWP3kgC-1" edge="1">
          <mxGeometry relative="1" as="geometry">
            <mxPoint x="710" y="230" as="targetPoint"/>
            <Array as="points">
              <mxPoint x="710" y="80"/>
              <mxPoint x="710" y="230"/>
            </Array>
          </mxGeometry>
        </mxCell>
        <mxCell id="seuzQnp5EJA8UqWP3kgC-1" value="User" style="rounded=1;whiteSpace=wrap;html=1;" parent="1" vertex="1">
          <mxGeometry x="202" y="50" width="338" height="60" as="geometry"/>
        </mxCell>
        <mxCell id="seuzQnp5EJA8UqWP3kgC-2" value="Personas, Protocol Accounts, App keys" style="text;html=1;strokeColor=none;fillColor=none;align=center;verticalAlign=middle;whiteSpace=wrap;rounded=0;" parent="1" vertex="1">
          <mxGeometry x="310" y="10" width="230" height="20" as="geometry"/>
        </mxCell>
        <mxCell id="seuzQnp5EJA8UqWP3kgC-3" value="" style="rounded=1;whiteSpace=wrap;html=1;align=left;" parent="1" vertex="1">
          <mxGeometry x="70" y="240" width="180" height="400" as="geometry"/>
        </mxCell>
        <mxCell id="seuzQnp5EJA8UqWP3kgC-60" style="edgeStyle=orthogonalEdgeStyle;rounded=0;orthogonalLoop=1;jettySize=auto;html=1;exitX=0;exitY=0.5;exitDx=0;exitDy=0;strokeColor=#00CC00;fillColor=#FF9933;entryX=0;entryY=0.5;entryDx=0;entryDy=0;" parent="1" source="seuzQnp5EJA8UqWP3kgC-4" target="seuzQnp5EJA8UqWP3kgC-8" edge="1">
          <mxGeometry relative="1" as="geometry">
            <mxPoint x="40" y="450" as="targetPoint"/>
            <Array as="points">
              <mxPoint x="30" y="760"/>
              <mxPoint x="30" y="443"/>
            </Array>
          </mxGeometry>
        </mxCell>
        <mxCell id="seuzQnp5EJA8UqWP3kgC-4" value="Application or Snap" style="rounded=1;whiteSpace=wrap;html=1;" parent="1" vertex="1">
          <mxGeometry x="140" y="730" width="580" height="60" as="geometry"/>
        </mxCell>
        <mxCell id="seuzQnp5EJA8UqWP3kgC-5" value="&lt;div style=&quot;text-align: left&quot;&gt;&lt;br&gt;&lt;/div&gt;" style="rounded=1;whiteSpace=wrap;html=1;" parent="1" vertex="1">
          <mxGeometry x="80" y="363" width="160" height="160" as="geometry"/>
        </mxCell>
        <mxCell id="seuzQnp5EJA8UqWP3kgC-6" value="Persona 0" style="text;html=1;strokeColor=none;fillColor=none;align=center;verticalAlign=middle;whiteSpace=wrap;rounded=0;" parent="1" vertex="1">
          <mxGeometry x="117.5" y="250" width="85" height="20" as="geometry"/>
        </mxCell>
        <mxCell id="seuzQnp5EJA8UqWP3kgC-9" value="" style="edgeStyle=orthogonalEdgeStyle;rounded=0;orthogonalLoop=1;jettySize=auto;html=1;" parent="1" source="seuzQnp5EJA8UqWP3kgC-7" target="seuzQnp5EJA8UqWP3kgC-8" edge="1">
          <mxGeometry relative="1" as="geometry"/>
        </mxCell>
        <mxCell id="seuzQnp5EJA8UqWP3kgC-7" value="&lt;div&gt;&lt;span&gt;App Key&lt;/span&gt;&lt;/div&gt;&lt;div&gt;&lt;span&gt;ens://snap.maker.eth&lt;/span&gt;&lt;/div&gt;" style="rounded=1;whiteSpace=wrap;html=1;align=left;" parent="1" vertex="1">
          <mxGeometry x="90" y="393" width="140" height="30" as="geometry"/>
        </mxCell>
        <mxCell id="seuzQnp5EJA8UqWP3kgC-8" value="&lt;div&gt;&lt;span&gt;App Key&lt;/span&gt;&lt;/div&gt;&lt;div&gt;&lt;span&gt;https://cryptokitties.com&lt;/span&gt;&lt;/div&gt;" style="rounded=1;whiteSpace=wrap;html=1;align=left;" parent="1" vertex="1">
          <mxGeometry x="90" y="428" width="140" height="30" as="geometry"/>
        </mxCell>
        <mxCell id="seuzQnp5EJA8UqWP3kgC-10" value="&lt;div&gt;&lt;span&gt;App Key&lt;/span&gt;&lt;/div&gt;&lt;div&gt;&lt;span&gt;ipfs://Qm3aC....p5N3&lt;/span&gt;&lt;/div&gt;" style="rounded=1;whiteSpace=wrap;html=1;align=left;" parent="1" vertex="1">
          <mxGeometry x="90" y="463" width="140" height="30" as="geometry"/>
        </mxCell>
        <mxCell id="seuzQnp5EJA8UqWP3kgC-11" value="" style="rounded=1;whiteSpace=wrap;html=1;align=left;" parent="1" vertex="1">
          <mxGeometry x="280" y="240" width="180" height="400" as="geometry"/>
        </mxCell>
        <mxCell id="seuzQnp5EJA8UqWP3kgC-12" value="&lt;div style=&quot;text-align: left&quot;&gt;&lt;br&gt;&lt;/div&gt;" style="rounded=1;whiteSpace=wrap;html=1;" parent="1" vertex="1">
          <mxGeometry x="290" y="363" width="160" height="160" as="geometry"/>
        </mxCell>
        <mxCell id="seuzQnp5EJA8UqWP3kgC-13" value="Persona 1" style="text;html=1;strokeColor=none;fillColor=none;align=center;verticalAlign=middle;whiteSpace=wrap;rounded=0;" parent="1" vertex="1">
          <mxGeometry x="329" y="250" width="85" height="20" as="geometry"/>
        </mxCell>
        <mxCell id="seuzQnp5EJA8UqWP3kgC-14" value="" style="edgeStyle=orthogonalEdgeStyle;rounded=0;orthogonalLoop=1;jettySize=auto;html=1;" parent="1" source="seuzQnp5EJA8UqWP3kgC-15" target="seuzQnp5EJA8UqWP3kgC-16" edge="1">
          <mxGeometry relative="1" as="geometry"/>
        </mxCell>
        <mxCell id="seuzQnp5EJA8UqWP3kgC-15" value="&lt;div&gt;&lt;span&gt;App Key&lt;/span&gt;&lt;/div&gt;&lt;div&gt;&lt;span&gt;ens://snap.maker.eth&lt;/span&gt;&lt;/div&gt;" style="rounded=1;whiteSpace=wrap;html=1;align=left;" parent="1" vertex="1">
          <mxGeometry x="300" y="393" width="140" height="30" as="geometry"/>
        </mxCell>
        <mxCell id="seuzQnp5EJA8UqWP3kgC-16" value="&lt;div&gt;&lt;span&gt;App Key&lt;/span&gt;&lt;/div&gt;&lt;div&gt;&lt;span&gt;https://cryptokitties.com&lt;/span&gt;&lt;/div&gt;" style="rounded=1;whiteSpace=wrap;html=1;align=left;" parent="1" vertex="1">
          <mxGeometry x="300" y="428" width="140" height="30" as="geometry"/>
        </mxCell>
        <mxCell id="seuzQnp5EJA8UqWP3kgC-17" value="&lt;div&gt;&lt;span&gt;App Key&lt;/span&gt;&lt;/div&gt;&lt;div&gt;&lt;span&gt;ipfs://Qm3aC....p5N3&lt;/span&gt;&lt;/div&gt;" style="rounded=1;whiteSpace=wrap;html=1;align=left;" parent="1" vertex="1">
          <mxGeometry x="300" y="463" width="140" height="30" as="geometry"/>
        </mxCell>
        <mxCell id="seuzQnp5EJA8UqWP3kgC-22" value="App keys (per origin)" style="text;html=1;strokeColor=none;fillColor=none;align=center;verticalAlign=middle;whiteSpace=wrap;rounded=0;" parent="1" vertex="1">
          <mxGeometry x="90" y="363" width="113" height="20" as="geometry"/>
        </mxCell>
        <mxCell id="seuzQnp5EJA8UqWP3kgC-23" value="App keys (per origin)" style="text;html=1;strokeColor=none;fillColor=none;align=center;verticalAlign=middle;whiteSpace=wrap;rounded=0;" parent="1" vertex="1">
          <mxGeometry x="300" y="363" width="113" height="20" as="geometry"/>
        </mxCell>
        <mxCell id="seuzQnp5EJA8UqWP3kgC-38" style="edgeStyle=orthogonalEdgeStyle;rounded=0;orthogonalLoop=1;jettySize=auto;html=1;entryX=0.435;entryY=1.005;entryDx=0;entryDy=0;entryPerimeter=0;exitX=0.5;exitY=1;exitDx=0;exitDy=0;strokeColor=#FF9933;shape=flexArrow;" parent="1" source="seuzQnp5EJA8UqWP3kgC-29" target="seuzQnp5EJA8UqWP3kgC-33" edge="1">
          <mxGeometry relative="1" as="geometry">
            <mxPoint x="110" y="690" as="targetPoint"/>
            <Array as="points">
              <mxPoint x="710" y="680"/>
              <mxPoint x="149" y="680"/>
            </Array>
          </mxGeometry>
        </mxCell>
        <mxCell id="seuzQnp5EJA8UqWP3kgC-24" value="" style="rounded=1;whiteSpace=wrap;html=1;align=left;" parent="1" vertex="1">
          <mxGeometry x="620" y="240" width="180" height="370" as="geometry"/>
        </mxCell>
        <mxCell id="seuzQnp5EJA8UqWP3kgC-25" value="Protocol Accounts&lt;br&gt;not previously used to interact with personas" style="text;html=1;strokeColor=none;fillColor=none;align=center;verticalAlign=middle;whiteSpace=wrap;rounded=0;" parent="1" vertex="1">
          <mxGeometry x="658.5" y="261.5" width="103" height="20" as="geometry"/>
        </mxCell>
        <mxCell id="seuzQnp5EJA8UqWP3kgC-26" value="&lt;div style=&quot;text-align: left&quot;&gt;Ethereum Accounts&lt;/div&gt;" style="rounded=1;whiteSpace=wrap;html=1;" parent="1" vertex="1">
          <mxGeometry x="630" y="317" width="160" height="63" as="geometry"/>
        </mxCell>
        <mxCell id="seuzQnp5EJA8UqWP3kgC-27" value="&lt;div style=&quot;text-align: left&quot;&gt;Bitcoin Accounts&lt;/div&gt;" style="rounded=1;whiteSpace=wrap;html=1;" parent="1" vertex="1">
          <mxGeometry x="630" y="386" width="160" height="63" as="geometry"/>
        </mxCell>
        <mxCell id="seuzQnp5EJA8UqWP3kgC-28" value="&lt;div&gt;Other cryptocurrency accounts&lt;/div&gt;" style="rounded=1;whiteSpace=wrap;html=1;align=center;" parent="1" vertex="1">
          <mxGeometry x="630" y="455" width="160" height="63" as="geometry"/>
        </mxCell>
        <mxCell id="seuzQnp5EJA8UqWP3kgC-29" value="&lt;div&gt;Non crypto accounts:&lt;/div&gt;&lt;div&gt;-ssh / pgp&lt;/div&gt;&lt;div&gt;-messaging&lt;/div&gt;&lt;div&gt;-database...&lt;/div&gt;" style="rounded=1;whiteSpace=wrap;html=1;align=center;" parent="1" vertex="1">
          <mxGeometry x="630" y="518" width="160" height="63" as="geometry"/>
        </mxCell>
        <mxCell id="seuzQnp5EJA8UqWP3kgC-33" value="&lt;div&gt;Protocol accounts already used to interact with Persona 0 accounts. (funding or other non private cryptographic interaction)&lt;/div&gt;" style="rounded=1;whiteSpace=wrap;html=1;align=center;" parent="1" vertex="1">
          <mxGeometry x="80" y="536" width="160" height="92" as="geometry"/>
        </mxCell>
        <mxCell id="seuzQnp5EJA8UqWP3kgC-40" value="&lt;div&gt;Persona Key:&lt;/div&gt;&lt;div&gt;can be used for fondamental identity operations&lt;/div&gt;" style="rounded=1;whiteSpace=wrap;html=1;align=center;" parent="1" vertex="1">
          <mxGeometry x="80" y="280" width="160" height="70" as="geometry"/>
        </mxCell>
        <mxCell id="seuzQnp5EJA8UqWP3kgC-45" value="&lt;div&gt;Persona Key:&lt;/div&gt;&lt;div&gt;can be used for fondamental identity operations&lt;/div&gt;" style="rounded=1;whiteSpace=wrap;html=1;align=center;" parent="1" vertex="1">
          <mxGeometry x="290" y="281.5" width="160" height="70" as="geometry"/>
        </mxCell>
        <mxCell id="seuzQnp5EJA8UqWP3kgC-47" value="&lt;div&gt;Protocol accounts already used to interact with Persona 1 accounts. (funding or other non private cryptographic interaction)&lt;/div&gt;" style="rounded=1;whiteSpace=wrap;html=1;align=center;" parent="1" vertex="1">
          <mxGeometry x="290" y="536" width="160" height="92" as="geometry"/>
        </mxCell>
        <mxCell id="seuzQnp5EJA8UqWP3kgC-50" value="Interacting in non private way:&lt;br&gt;Ethereum, Bitcoin transaction...&lt;br&gt;ties the account to the persona" style="text;html=1;strokeColor=#FF9933;fillColor=none;align=center;verticalAlign=middle;whiteSpace=wrap;rounded=0;direction=south;" parent="1" vertex="1">
          <mxGeometry x="470" y="603" width="200" height="67" as="geometry"/>
        </mxCell>
        <mxCell id="seuzQnp5EJA8UqWP3kgC-52" value="" style="endArrow=classic;html=1;strokeColor=#FF9933;shape=flexArrow;" parent="1" edge="1">
          <mxGeometry width="50" height="50" relative="1" as="geometry">
            <mxPoint x="616" y="586" as="sourcePoint"/>
            <mxPoint x="470" y="586" as="targetPoint"/>
          </mxGeometry>
        </mxCell>
        <mxCell id="seuzQnp5EJA8UqWP3kgC-54" value="" style="endArrow=classic;html=1;strokeColor=#00CC00;" parent="1" edge="1">
          <mxGeometry width="50" height="50" relative="1" as="geometry">
            <mxPoint x="613" y="440" as="sourcePoint"/>
            <mxPoint x="467" y="440" as="targetPoint"/>
          </mxGeometry>
        </mxCell>
        <mxCell id="seuzQnp5EJA8UqWP3kgC-55" value="Private interactions:&lt;br&gt;Mixers, Zk-snarks" style="text;html=1;align=center;verticalAlign=middle;resizable=0;points=[];;autosize=1;strokeColor=#00CC00;" parent="1" vertex="1">
          <mxGeometry x="480" y="386" width="120" height="30" as="geometry"/>
        </mxCell>
        <mxCell id="seuzQnp5EJA8UqWP3kgC-57" value="" style="endArrow=classic;html=1;strokeColor=#00CC00;entryX=0.838;entryY=-0.011;entryDx=0;entryDy=0;entryPerimeter=0;" parent="1" target="seuzQnp5EJA8UqWP3kgC-3" edge="1">
          <mxGeometry width="50" height="50" relative="1" as="geometry">
            <mxPoint x="610" y="360" as="sourcePoint"/>
            <mxPoint x="183.5" y="214" as="targetPoint"/>
            <Array as="points">
              <mxPoint x="556" y="360"/>
              <mxPoint x="556.5" y="214"/>
              <mxPoint x="221" y="214"/>
            </Array>
          </mxGeometry>
        </mxCell>
        <mxCell id="seuzQnp5EJA8UqWP3kgC-61" value="" style="rounded=0;whiteSpace=wrap;html=1;strokeColor=#00CC00;fillColor=#660000;" parent="1" vertex="1">
          <mxGeometry x="260" y="240" width="8" height="400" as="geometry"/>
        </mxCell>
        <mxCell id="seuzQnp5EJA8UqWP3kgC-68" value="" style="shape=flexArrow;endArrow=classic;startArrow=classic;html=1;strokeColor=#00CC00;fillColor=#FFFFFF;" parent="1" edge="1">
          <mxGeometry width="50" height="50" relative="1" as="geometry">
            <mxPoint x="235" y="439" as="sourcePoint"/>
            <mxPoint x="295" y="439" as="targetPoint"/>
          </mxGeometry>
        </mxCell>
        <mxCell id="BkmEYg5Jo84UTognSoJv-1" value="" style="shape=flexArrow;endArrow=classic;startArrow=classic;html=1;strokeColor=#FF9933;" edge="1" parent="1">
          <mxGeometry width="50" height="50" relative="1" as="geometry">
            <mxPoint x="153.5" y="553" as="sourcePoint"/>
            <mxPoint x="153.5" y="493" as="targetPoint"/>
          </mxGeometry>
        </mxCell>
        <mxCell id="BkmEYg5Jo84UTognSoJv-3" value="" style="shape=flexArrow;endArrow=classic;startArrow=classic;html=1;strokeColor=#FF9933;" edge="1" parent="1">
          <mxGeometry width="50" height="50" relative="1" as="geometry">
            <mxPoint x="364" y="553" as="sourcePoint"/>
            <mxPoint x="364" y="493" as="targetPoint"/>
          </mxGeometry>
        </mxCell>
      </root>
    </mxGraphModel>
  </diagram>
</mxfile>
